ModelForces
version=1
nRows=4
nColumns=157
inDegrees=no

This file contains the forces exerted on a model during a simulation.

A force is a generalized force, meaning that it can be either a force (N) or a torque (Nm).

Units are S.I. units (second, meters, Newtons, ...)
Angles are in degrees.

endheader
time	glut_med1_r	glut_med2_r	glut_med3_r	glut_min1_r	glut_min2_r	glut_min3_r	semimem_r	semiten_r	bifemlh_r	bifemsh_r	sar_r	add_long_r	add_brev_r	add_mag1_r	add_mag2_r	add_mag3_r	tfl_r	pect_r	grac_r	glut_max1_r	glut_max2_r	glut_max3_r	iliacus_r	psoas_r	quad_fem_r	gem_r	peri_r	rect_fem_r	vas_med_r	vas_int_r	vas_lat_r	med_gas_r	lat_gas_r	soleus_r	tib_post_r	flex_dig_r	flex_hal_r	tib_ant_r	per_brev_r	per_long_r	per_tert_r	ext_dig_r	ext_hal_r	glut_med1_l	glut_med2_l	glut_med3_l	glut_min1_l	glut_min2_l	glut_min3_l	semimem_l	semiten_l	bifemlh_l	bifemsh_l	sar_l	add_long_l	add_brev_l	add_mag1_l	add_mag2_l	add_mag3_l	tfl_l	pect_l	grac_l	glut_max1_l	glut_max2_l	glut_max3_l	iliacus_l	psoas_l	quad_fem_l	gem_l	peri_l	rect_fem_l	vas_med_l	vas_int_l	vas_lat_l	med_gas_l	lat_gas_l	soleus_l	tib_post_l	flex_dig_l	flex_hal_l	tib_ant_l	per_brev_l	per_long_l	per_tert_l	ext_dig_l	ext_hal_l	ercspn_r	ercspn_l	intobl_r	intobl_l	extobl_r	extobl_l	femur_lat_meniscii_r.femur_lat_r.force.X	femur_lat_meniscii_r.femur_lat_r.force.Y	femur_lat_meniscii_r.femur_lat_r.force.Z	femur_lat_meniscii_r.femur_lat_r.torque.X	femur_lat_meniscii_r.femur_lat_r.torque.Y	femur_lat_meniscii_r.femur_lat_r.torque.Z	femur_lat_meniscii_r.meniscus_lat_r.force.X	femur_lat_meniscii_r.meniscus_lat_r.force.Y	femur_lat_meniscii_r.meniscus_lat_r.force.Z	femur_lat_meniscii_r.meniscus_lat_r.torque.X	femur_lat_meniscii_r.meniscus_lat_r.torque.Y	femur_lat_meniscii_r.meniscus_lat_r.torque.Z	femur_med_meniscii_r.femur_med_r.force.X	femur_med_meniscii_r.femur_med_r.force.Y	femur_med_meniscii_r.femur_med_r.force.Z	femur_med_meniscii_r.femur_med_r.torque.X	femur_med_meniscii_r.femur_med_r.torque.Y	femur_med_meniscii_r.femur_med_r.torque.Z	femur_med_meniscii_r.meniscus_med_r.force.X	femur_med_meniscii_r.meniscus_med_r.force.Y	femur_med_meniscii_r.meniscus_med_r.force.Z	femur_med_meniscii_r.meniscus_med_r.torque.X	femur_med_meniscii_r.meniscus_med_r.torque.Y	femur_med_meniscii_r.meniscus_med_r.torque.Z	femur_med_tibia_r.tibia_upper_r.force.X	femur_med_tibia_r.tibia_upper_r.force.Y	femur_med_tibia_r.tibia_upper_r.force.Z	femur_med_tibia_r.tibia_upper_r.torque.X	femur_med_tibia_r.tibia_upper_r.torque.Y	femur_med_tibia_r.tibia_upper_r.torque.Z	femur_med_tibia_r.femur_med_r.force.X	femur_med_tibia_r.femur_med_r.force.Y	femur_med_tibia_r.femur_med_r.force.Z	femur_med_tibia_r.femur_med_r.torque.X	femur_med_tibia_r.femur_med_r.torque.Y	femur_med_tibia_r.femur_med_r.torque.Z	femur_lat_tibia_r.tibia_upper_r.force.X	femur_lat_tibia_r.tibia_upper_r.force.Y	femur_lat_tibia_r.tibia_upper_r.force.Z	femur_lat_tibia_r.tibia_upper_r.torque.X	femur_lat_tibia_r.tibia_upper_r.torque.Y	femur_lat_tibia_r.tibia_upper_r.torque.Z	femur_lat_tibia_r.femur_lat_r.force.X	femur_lat_tibia_r.femur_lat_r.force.Y	femur_lat_tibia_r.femur_lat_r.force.Z	femur_lat_tibia_r.femur_lat_r.torque.X	femur_lat_tibia_r.femur_lat_r.torque.Y	femur_lat_tibia_r.femur_lat_r.torque.Z	aACL_R	pACL_R	aPCL_R	pPCL_R	aMCL_R	mMCL_R	pMCL_R	aLCL_R	mLCL_R	pLCL_R	ground_prescribedForce_fx	ground_prescribedForce_fy	ground_prescribedForce_fz	ground_prescribedForce_px	ground_prescribedForce_py	ground_prescribedForce_pz
      0.00000000	     37.33894313	     44.70399505	    157.75619302	     12.85825756	     14.21116019	     20.58409858	    604.44850736	    160.52308938	    471.78111018	     36.02754664	      6.22579910	     23.22453342	     21.35608526	     31.15902669	     26.38466437	     95.57141417	      0.00000000	      8.17970477	      8.58951497	     27.14587737	     40.82397318	     74.43042271	     25.47372388	     23.74850419	    197.67284415	     40.83182119	     83.88942583	     11.17960646	     32.38176469	     32.82510377	     40.14722941	     67.39492298	     31.74693446	    152.72720615	     92.44658902	     14.93332009	     15.26895791	     41.82851940	     21.62523106	     46.40594865	      8.86060096	     25.04818486	      7.96045570	     37.48087652	     28.28714471	     30.25598133	     13.28977762	     14.47626353	     15.91713841	     42.06683902	     20.39635155	     37.67631238	     36.01822118	      7.59254209	     27.93927808	     20.68957741	     14.51222487	     12.16230296	     19.66717628	     12.58139899	     11.16605282	      7.78214370	     18.12681708	     27.55933735	     20.56469162	     63.94906620	     55.74758807	     18.09791099	      9.16719286	     20.03897647	     52.59637061	     32.48786114	     37.22481259	     39.87514307	     67.71424671	     31.64857027	    152.72720615	     92.44658902	     14.93332009	     15.26895791	     41.82851940	     21.62523106	     46.40594865	      8.86060096	     25.04818486	      7.96045570	    124.99446086	    124.99446086	     44.97041513	     44.97041513	     60.98287244	     60.98287244	     -0.28327820	      0.13182552	      0.00246511	     -0.00348171	     -0.00838417	      0.05534422	      0.28327820	     -0.13182552	     -0.00246511	      0.00417289	      0.00891957	     -0.00454827	     -3.64437858	      0.07454550	      0.29868801	      0.00656272	     -0.04627525	      0.09076941	      3.64437858	     -0.07454550	     -0.29868801	     -0.00613750	     -0.04964294	     -0.06164219	      0.00000000	      0.00000000	      0.00000000	      0.00000000	      0.00000000	      0.00000000	      0.00000000	      0.00000000	      0.00000000	      0.00000000	      0.00000000	      0.00000000	      0.00000000	      0.00000000	      0.00000000	      0.00000000	      0.00000000	      0.00000000	      0.00000000	      0.00000000	      0.00000000	      0.00000000	      0.00000000	      0.00000000	     17.58855542	     35.98624740	      0.00000000	      0.00000000	      0.00000000	      4.34794595	     16.58356773	      1.86146449	      0.00000000	      2.98101398	      0.00000000	      0.00000000	      0.00000000	      0.00000000	      0.00000000	      0.00000000
      0.00100000	     37.32877910	     44.68022719	    157.70355606	     12.83841577	     14.19985122	     20.57859882	    592.58255570	    161.73176921	    466.40714056	     37.87638534	      9.23442992	     23.21243440	     21.30848629	     31.14401155	     26.37558252	     95.55639364	      0.00000000	      8.16939869	     10.33704392	     27.13400480	     40.80611692	     74.40775090	     25.46084163	     23.74034534	    197.61530142	     40.82465188	     83.88354706	      9.28717800	     24.63759317	     25.16634628	     31.61620374	     62.40967974	     29.44111115	    145.40543513	     91.61498192	     14.93313859	     15.20220207	     43.93802867	     21.44605803	     46.08212683	      9.47963063	     25.60498761	      8.16232947	     37.47068608	     28.27022932	     30.24086714	     13.26950867	     14.46480712	     15.91260065	     42.06228881	     20.39020965	     37.67123261	     35.98888344	      7.57882260	     27.92554748	     20.64313666	     14.50364319	     12.15716021	     19.66293667	     12.58033419	     11.15324218	      7.77413879	     18.11779344	     27.54583488	     20.55620729	     63.92578024	     55.73415570	     18.08271668	      9.16509816	     20.03713766	     52.58867645	     32.47668845	     37.21372981	     39.86386325	     67.70976811	     31.64643975	    152.71327822	     92.44307771	     14.93481584	     15.27019563	     41.82127614	     21.62263156	     46.40335095	      8.85785788	     25.04193096	      7.95792407	    124.81723588	    124.81723588	     44.95337082	     44.95337082	     60.96445217	     60.96445217	    -20.57047171	      4.29773707	     -0.06020063	     -0.11766323	     -0.51455566	      1.89104589	     20.57047171	     -4.29773707	      0.06020063	      0.14005858	      0.64495475	     -0.23428295	    -71.93782505	      8.31604607	      6.51863129	      0.27444929	     -1.19245993	      4.46067881	     71.93782505	     -8.31604607	     -6.51863129	     -0.23034745	     -0.94186053	     -1.25115572	      0.00000000	      0.00000000	      0.00000000	      0.00000000	      0.00000000	      0.00000000	      0.00000000	      0.00000000	      0.00000000	      0.00000000	      0.00000000	      0.00000000	      0.00000000	      0.00000000	      0.00000000	      0.00000000	      0.00000000	      0.00000000	      0.00000000	      0.00000000	      0.00000000	      0.00000000	      0.00000000	      0.00000000	    -71.16656181	    -59.06914709	      0.00000000	      0.00000000	      0.00000000	   -155.08729056	   -143.64315695	   -191.93296178	      0.00000000	   -194.42749255	      0.00000000	      0.00000000	      0.00000000	      0.00000000	      0.00000000	      0.00000000
      0.00229763	     37.28571728	     44.58554122	    157.52208340	     12.76472788	     14.15444646	     20.55548482	    571.03917571	    165.18765095	    459.23195142	     46.85565963	     16.56869983	     23.16247006	     21.14409499	     31.08398575	     26.33821847	     95.49619662	      0.00000000	      8.12997190	     15.51299396	     27.08454722	     40.73172734	     74.31833502	     25.40756311	     23.70603891	    197.46949807	     40.79709595	     83.85890403	      5.21993927	     10.17237835	     10.46571978	     14.40643459	     50.60609395	     24.06711044	    125.47961859	     89.07152456	     14.97324313	     15.04738138	     50.35579313	     21.00757596	     45.21414573	     11.40438161	     27.18680381	      8.71928068	     37.42751073	     28.20091605	     30.17830436	     13.19408735	     14.41886968	     15.89339927	     42.04268918	     20.36426194	     37.64940859	     35.87132697	      7.52926939	     27.86866954	     20.48302202	     14.46845941	     12.13570788	     19.64487181	     12.57574079	     11.10365773	      7.74276825	     18.08044154	     27.48989780	     20.52077825	     63.82885776	     55.67710012	     18.02199283	      9.15621280	     20.02920231	     52.55565701	     32.42970812	     37.16690629	     39.81613773	     67.69039067	     31.63722237	    152.65316833	     92.42786094	     14.94112452	     15.27538433	     41.79027617	     21.61144445	     46.39209798	      8.84628840	     25.01532402	      7.94718692	    124.15030921	    124.15030921	     44.88193592	     44.88193592	     60.88761588	     60.88761588	   -231.88833390	     32.43423725	     12.38417404	     -0.80575726	    -11.14254211	     14.90706024	    231.88833390	    -32.43423725	    -12.38417404	      0.97198391	      7.55803088	     -2.40667815	   -444.98222774	     55.09413277	     56.40692502	      1.94358103	    -14.16150812	     28.72917119	    444.98222774	    -55.09413277	    -56.40692502	     -1.65707609	     -5.27021352	     -7.48951924	     37.03969902	     -2.14840653	      9.30690892	      0.10727933	     -0.69262032	     -0.59049619	    -37.03969902	      2.14840653	     -9.30690892	     -0.09745560	      4.45994187	      1.42104800	      0.00000000	      0.00000000	      0.00000000	      0.00000000	      0.00000000	      0.00000000	      0.00000000	      0.00000000	      0.00000000	      0.00000000	      0.00000000	      0.00000000	   -103.51594259	   -101.37365905	      0.00000000	      0.00000000	      0.00000000	   -188.55750090	   -179.67144871	   -229.59782643	      0.00000000	   -234.57813667	      0.00000000	      0.00000000	      0.00000000	      0.00000000	      0.00000000	      0.00000000
      0.00292240	     37.25320742	     44.51771905	    157.40614549	     12.71490354	     14.12171706	     20.53815597	    568.67277586	    169.51324645	    461.63573016	     57.43991048	     21.23874065	     23.12557702	     21.03900363	     31.04086357	     26.31071485	     95.45284970	      0.00000000	      8.10266546	     19.49727311	     27.04775431	     40.67638348	     74.25481051	     25.36816963	     23.68030724	    197.39230604	     40.77792754	     83.84046654	      4.02428969	      6.52756800	      6.57831429	      9.50422809	     46.60106429	     22.29909331	    116.39685340	     87.75382738	     15.02631574	     15.00292561	     53.58321689	     20.83378497	     44.82326669	     12.33126215	     27.91589874	      8.96368638	     37.39491413	     28.15007842	     30.13201656	     13.14301200	     14.38579203	     15.87891881	     42.02767493	     20.34472118	     37.63272859	     35.78672742	      7.49648997	     27.82656037	     20.38079557	     14.44264096	     12.11972952	     19.63116497	     12.57221741	     11.06898814	      7.72060874	     18.05280491	     27.44848112	     20.49436539	     63.75680186	     55.63392831	     17.97839006	      9.14949751	     20.02311344	     52.53044543	     32.39447016	     37.13164102	     39.78014649	     67.67548792	     31.63013402	    152.60704234	     92.41614128	     14.94585871	     15.27925519	     41.76666330	     21.60288151	     46.38343439	      8.83758816	     24.99518064	      7.93908115	    123.69457380	    123.69457380	     44.82851248	     44.82851248	     60.83038372	     60.83038372	   -299.35007574	     45.40085818	     25.96182733	     -1.07537804	    -18.45048783	     20.70025145	    299.35007574	    -45.40085818	    -25.96182733	      1.30501303	      9.96403136	     -3.21174220	   -544.06925015	     70.98834562	     88.62187936	      2.67547366	    -25.45624193	     36.48603464	    544.06925015	    -70.98834562	    -88.62187936	     -2.31058002	     -5.89601414	     -9.13192961	    886.87877951	    -25.26596522	    189.41512088	      2.46992569	    -15.67745522	    -13.83470047	   -886.87877951	     25.26596522	   -189.41512088	     -2.36691458	     92.91287868	     23.65476736	      0.00000000	      0.00000000	      0.00000000	      0.00000000	      0.00000000	      0.00000000	      0.00000000	      0.00000000	      0.00000000	      0.00000000	      0.00000000	      0.00000000	    -81.80336724	    -83.18212054	      0.00000000	      0.00000000	      0.00000000	   -134.28857105	   -126.66646788	   -164.82564770	      0.00000000	   -169.81878145	      0.00000000	      0.00000000	      0.00000000	      0.00000000	      0.00000000	      0.00000000
